<mxfile host="Electron" modified="2024-05-31T10:01:35.204Z" agent="Mozilla/5.0 (Windows NT 10.0; Win64; x64) AppleWebKit/537.36 (KHTML, like Gecko) draw.io/24.4.8 Chrome/124.0.6367.207 Electron/30.0.6 Safari/537.36" etag="OrUv2rvYpW-kaHoTIlyG" version="24.4.8" type="device">
  <diagram name="Page-1" id="e7e014a7-5840-1c2e-5031-d8a46d1fe8dd">
    <mxGraphModel dx="1101" dy="985" grid="1" gridSize="10" guides="1" tooltips="1" connect="1" arrows="1" fold="1" page="1" pageScale="1" pageWidth="1169" pageHeight="826" background="none" math="0" shadow="0">
      <root>
        <mxCell id="0" />
        <mxCell id="1" parent="0" />
        <mxCell id="FWJiOn7kUcf7o3UVAfIE-120" value="" style="group" vertex="1" connectable="0" parent="1">
          <mxGeometry x="510" y="140" width="430" height="270" as="geometry" />
        </mxCell>
        <mxCell id="FWJiOn7kUcf7o3UVAfIE-109" value="" style="group" vertex="1" connectable="0" parent="FWJiOn7kUcf7o3UVAfIE-120">
          <mxGeometry width="430" height="130" as="geometry" />
        </mxCell>
        <mxCell id="FWJiOn7kUcf7o3UVAfIE-105" value="Hello, Who are you ?" style="text;html=1;align=center;verticalAlign=middle;whiteSpace=wrap;rounded=1;fontFamily=Comic Sans MS;fontSize=19;strokeColor=default;" vertex="1" parent="FWJiOn7kUcf7o3UVAfIE-109">
          <mxGeometry x="80" y="10" width="280" height="40" as="geometry" />
        </mxCell>
        <mxCell id="FWJiOn7kUcf7o3UVAfIE-106" value="Hi, I am Llama3-Chinese-ORPO." style="text;html=1;align=center;verticalAlign=middle;whiteSpace=wrap;rounded=1;fontFamily=Comic Sans MS;fontSize=19;strokeColor=default;" vertex="1" parent="FWJiOn7kUcf7o3UVAfIE-109">
          <mxGeometry x="63" y="80" width="317" height="40" as="geometry" />
        </mxCell>
        <mxCell id="FWJiOn7kUcf7o3UVAfIE-42" value="" style="shape=image;verticalLabelPosition=bottom;labelBackgroundColor=default;verticalAlign=top;aspect=fixed;imageAspect=0;image=data:image/svg+xml,PHN2ZyB4bWxuczp4bGluaz0iaHR0cDovL3d3dy53My5vcmcvMTk5OS94bGluayIgeG1sbnM9Imh0dHA6Ly93d3cudzMub3JnLzIwMDAvc3ZnIiBoZWlnaHQ9IjIwMCIgd2lkdGg9IjIwMCIgdmVyc2lvbj0iMS4xIiB2aWV3Qm94PSIwIDAgMTAyNCAxMDI0IiBjbGFzcz0iaWNvbiI+PHBhdGggZmlsbD0iIzE3MkM1NCIgZD0iTTEwMjIuMTM5NzMzIDg0Ny43MTg0bC01My4xODgyNjYtMjI5LjU1NTJhMTk1LjI3MjUzMyAxOTUuMjcyNTMzIDAgMCAwLTUxLjkwODI2Ny05My40NzQxMzMgMTg5LjA5NTI1MyAxODkuMDk1MjUzIDAgMCAwLTc0LjAyNjY2Ny00Ni4xOTk0NjdsLTY1LjMwNTYtMjguMzM5Mi0zLjgzMTQ2Ni0xLjY5ODEzMy0xMjIuOTM5NzM0LTUzLjAxNzZhMTcwLjM4Njc3MyAxNzAuMzg2NzczIDAgMCAwIDMwLjgzOTQ2Ny05Ni42ODI2Njd2LTQ2LjQxMjhjMjUuNDI5MzMzLTkuMDAyNjY3IDQyLjQ2MTg2Ny0zMy4wNDEwNjcgNDIuNTMwMTMzLTYwLjA0MDUzM3YtNzQuNTIxNmMwLTI5LjM5NzMzMy0yMy43OTk0NjctNTMuMjIyNC01My4xNjI2NjYtNTMuMjM5NDY3LTIuODI0NTMzIDAuMDA4NTMzLTUuNTI5Ni0xLjEwOTMzMy03LjUzNDkzNC0zLjEwNjEzM2ExMC42NjQ5NiAxMC42NjQ5NiAwIDAgMS0zLjEyMzItNy41MzQ5MzRjMC0yOS4zOTczMzMtMjMuNzk5NDY3LTUzLjIyMjQtNTMuMTYyNjY2LTUzLjIzOTQ2NkgzNTIuMDc2OGE1My4xMjg1MzMgNTMuMTI4NTMzIDAgMCAwLTM3LjYwNjQgMTUuNTk4OTMzIDUzLjI1OTA5MyA1My4yNTkwOTMgMCAwIDAtMTUuNTczMzMzIDM3LjY0OTA2N3YxMzguNDAyMTMzYzAuMDc2OCAyNi45OTk0NjcgMTcuMTAwOCA1MS4wNDY0IDQyLjUzMDEzMyA2MC4wNDA1MzN2NDYuNDEyOGMwLjA1OTczMyAzNC45MDk4NjcgMTAuODI4OCA2OC45NjY0IDMwLjg2NTA2NyA5Ny41NDQ1MzRMMjQ5Ljc3MDY2NyA0NDkuMzE0MTMzYy0xLjU2MTYgMC40NjkzMzMtMy4wNjM0NjcgMS4xMTc4NjctNC40OCAxLjkyODUzNGwtNjMuODEyMjY3IDI3LjQ2MDI2NmExOTEuNTI4OTYgMTkxLjUyODk2IDAgMCAwLTc1LjcxNjI2NyA0Ni44NDhBMTk1LjI3NjggMTk1LjI3NjggMCAwIDAgNTQuMjcyIDYxOC4xNzE3MzNsLTUzLjE3OTczMyAyMjkuNTQ2NjY3Yy0wLjIyMTg2NyAxLjU2MTYtMC4yMjE4NjcgMy4xNDAyNjcgMCA0LjY5MzMzMyAwIDcwLjQxNzA2NyA1Ni45MTczMzMgMTI3LjUzMDY2NyAxMjcuMjA2NCAxMjcuNzYxMDY3di0wLjE2MjEzM2g3NzIuNzUzMDY2YzY3LjQ0NzQ2Ny0zLjQxMzMzMyAxMjEuMDc5NDY3LTU5LjIzODQgMTIxLjA3OTQ2Ny0xMjcuNTk4OTM0IDAuMjMwNC0xLjU2MTYgMC4yMzA0LTMuMTQwMjY3IDAuMDA4NTMzLTQuNjkzMzMzek00MjEuNDE4NjY3IDI1Ni4xNzkyYzQ1Ljk1MiAwLjE2MjEzMyA5MC45NjUzMzMtMTMuMDk4NjY3IDEyOS41MzYtMzguMTAxMzMzYTE2NC41NzEzMDcgMTY0LjU3MTMwNyAwIDAgMCA4OC4zMiAzOC4xMDEzMzN2NDIuNTgxMzMzYzAgNzAuNTYyMTMzLTU3LjEzOTIgMTI3Ljc2OTYtMTI3LjYyNDUzNCAxMjcuNzY5Ni03MC40OTM4NjcgMC0xMjcuNjMzMDY3LTU3LjIwNzQ2Ny0xMjcuNjMzMDY2LTEyNy43Njk2di00Mi41ODEzMzNoMzcuNDAxNnogbTE1NS4yODk2IDIwMC4xNjY0bC0zNy4yNDggOTcuOTM3MDY3aC01NS43MTQxMzRsLTM1Ljk2OC05Ny45MzcwNjdhMTY5Ljk5MjUzMyAxNjkuOTkyNTMzIDAgMCAwIDEyOC45MzAxMzQgMHogbTE2OC44OTE3MzMgNDM4LjY0NzQ2N0gyNzcuNjE0OTMzVjU5Ni44ODEwNjdoNDY3Ljk4NTA2N3YyOTguMTEyeiIvPjxwYXRoIGZpbGw9IiMxNzJDNTQiIGQ9Ik00NDEuNjA4NTMzIDY4OC4yNDc0NjdhMjEuMjU5OTQ3IDIxLjI1OTk0NyAwIDAgMC0xNS4wNzg0LTYuMjgwNTM0Yy01LjY2NjEzMyAwLTExLjA5MzMzMyAyLjI2MTMzMy0xNS4wODY5MzMgNi4yODA1MzRsLTQyLjU1NTczMyA0Mi41NTU3MzNhMjEuMjg4OTYgMjEuMjg4OTYgMCAwIDAtNi4yOTc2IDE1LjEyMTA2N2MwIDUuNjc0NjY3IDIuMjYxMzMzIDExLjExODkzMyA2LjI5NzYgMTUuMTIxMDY2bDQyLjUzMDEzMyA0Mi41OTg0YTIxLjI4NTU0NyAyMS4yODU1NDcgMCAwIDAgMTUuMTA0IDYuMjk3NmM1LjY3NDY2NyAwIDExLjExMDQtMi4yNjk4NjcgMTUuMTA0LTYuMjk3NmEyMS4zMTYyNjcgMjEuMzE2MjY3IDAgMCAwIDYuMjg5MDY3LTE1LjEyMTA2NmMwLTUuNjc0NjY3LTIuMjYxMzMzLTExLjExODkzMy02LjI4OTA2Ny0xNS4xMjEwNjdsLTI3LjY2NTA2Ny0yNy40NzczMzMgMjcuNjY1MDY3LTI3LjQ2MDI2N2EyMS4zMTYyNjcgMjEuMzE2MjY3IDAgMCAwIDYuMjg5MDY3LTE1LjEyMTA2N2MwLTUuNjc0NjY3LTIuMjYxMzMzLTExLjExODkzMy02LjI4OTA2Ny0xNS4xMjEwNjZsLTAuMDE3MDY3IDAuMDI1NnogbTEzOS45OTc4NjcgMGEyMS4zMTIgMjEuMzEyIDAgMCAwLTYuMjcyIDE1LjA5NTQ2NmMwIDUuNjY2MTMzIDIuMjYxMzMzIDExLjEwMTg2NyA2LjI3MiAxNS4wOTU0NjdsMjcuNjMwOTMzIDI3LjQ4NTg2Ny0yNy42MzA5MzMgMjcuNDc3MzMzYTIxLjMyNDggMjEuMzI0OCAwIDAgMC02LjI5NzYgMTUuMTIxMDY3YzAgNS42NzQ2NjcgMi4yNjk4NjcgMTEuMTE4OTMzIDYuMjk3NiAxNS4xMjEwNjZhMjEuMjU3Mzg3IDIxLjI1NzM4NyAwIDAgMCAxNS4wOTU0NjcgNi4yODkwNjdjNS42NjYxMzMgMCAxMS4xMDE4NjctMi4yNjEzMzMgMTUuMDk1NDY2LTYuMjg5MDY3bDQyLjUzMDEzNC00Mi41OTg0YTIxLjMyNDggMjEuMzI0OCAwIDAgMCA2LjI5NzYtMTUuMTIxMDY2YzAtNS42NzQ2NjctMi4yNjk4NjctMTEuMTE4OTMzLTYuMjk3Ni0xNS4xMjEwNjdsLTQyLjUxMzA2Ny00Mi41NTU3MzNhMjEuMjcxMDQgMjEuMjcxMDQgMCAwIDAtMTUuMTA0LTYuMjk3NmMtNS42NzQ2NjcgMC0xMS4xMTA0IDIuMjYxMzMzLTE1LjEwNCA2LjI5NzZ6IG0tNDEuOTA3Mi0yNi40MzYyNjdhMjEuMjY4NDggMjEuMjY4NDggMCAwIDAtMTYuMzA3MiAxLjA4MzczMyAyMS4yOTA2NjcgMjEuMjkwNjY3IDAgMCAwLTEwLjczNDkzMyAxMi4zMzkybC00Mi41MzAxMzQgMTI3Ljc2MTA2N2EyMS4zMTg4MjcgMjEuMzE4ODI3IDAgMCAwIDAuNjA1ODY3IDE2Ljk3MjggMjEuMjg4MTA3IDIxLjI4ODEwNyAwIDAgMCAxMi44MDg1MzMgMTEuMTM2YzIuMjUyOCAwLjI5ODY2NyA0LjU0ODI2NyAwLjI5ODY2NyA2Ljc5MjUzNCAwIDkuMTMwNjY3IDAuMDA4NTMzIDE3LjI2MjkzMy01LjgxMTIgMjAuMTg5ODY2LTE0LjQ3MjUzM2w0Mi41NTU3MzQtMTI3Ljc2MTA2N2EyMS4zMjczNiAyMS4zMjczNiAwIDAgMC0xLjA3NTItMTYuMzE1NzMzIDIxLjI2OTMzMyAyMS4yNjkzMzMgMCAwIDAtMTIuMzA1MDY3LTEwLjc0MzQ2N3ogbTAgMCIvPjwvc3ZnPg==;container=0;" vertex="1" parent="FWJiOn7kUcf7o3UVAfIE-109">
          <mxGeometry x="370" width="60" height="60" as="geometry" />
        </mxCell>
        <mxCell id="FWJiOn7kUcf7o3UVAfIE-43" value="" style="shape=image;verticalLabelPosition=bottom;labelBackgroundColor=default;verticalAlign=top;aspect=fixed;imageAspect=0;image=data:image/svg+xml,PHN2ZyB4bWxuczp4bGluaz0iaHR0cDovL3d3dy53My5vcmcvMTk5OS94bGluayIgeG1sbnM9Imh0dHA6Ly93d3cudzMub3JnLzIwMDAvc3ZnIiBoZWlnaHQ9IjIwMCIgd2lkdGg9IjIwMCIgdmVyc2lvbj0iMS4xIiB2aWV3Qm94PSIwIDAgMTAyNCAxMDI0IiBjbGFzcz0iaWNvbiI+PHBhdGggZmlsbD0iIzMzMzMzMyIgZD0iTTY4My43IDkyMi43aC0zNDVjLTczLjUgMC0xMzMuMy01OS44LTEzMy4zLTEzMy4zVjQ1OS44YzAtNzMuNSA1OS44LTEzMy4zIDEzMy4zLTEzMy4zaDM0NWM3My41IDAgMTMzLjMgNTkuOCAxMzMuMyAxMzMuM3YzMjkuNmMwIDczLjUtNTkuOCAxMzMuMy0xMzMuMyAxMzMuM3ogbS0zNDUtNTA2LjljLTI0LjMgMC00NC4xIDE5LjgtNDQuMSA0NC4xdjMyOS42YzAgMjQuMyAxOS44IDQ0LjEgNDQuMSA0NC4xaDM0NWMyNC4zIDAgNDQuMS0xOS44IDQ0LjEtNDQuMVY0NTkuOGMwLTI0LjMtMTkuOC00NC4xLTQ0LjEtNDQuMWgtMzQ1ek05MTQuMyA3NTkuNmMtMjQuNiAwLTQ0LjYtMjAtNDQuNi00NC42VjUzNC4zYzAtMjQuNiAyMC00NC42IDQ0LjYtNDQuNnM0NC42IDIwIDQ0LjYgNDQuNlY3MTVjMCAyNC43LTIwIDQ0LjYtNDQuNiA0NC42ek0xMTEuNyA3NTkuNmMtMjQuNiAwLTQ0LjYtMjAtNDQuNi00NC42VjUzNC4zYzAtMjQuNiAyMC00NC42IDQ0LjYtNDQuNnM0NC42IDIwIDQ0LjYgNDQuNlY3MTVjMCAyNC43LTE5LjkgNDQuNi00NC42IDQ0LjZ6Ii8+PHBhdGggZmlsbD0iIzMzMzMzMyIgZD0iTTUxMS4yIDQxNS44Yy0yNC42IDAtNDQuNi0yMC00NC42LTQ0LjZWMjM5LjNjMC0yNC42IDIwLTQ0LjYgNDQuNi00NC42czQ0LjYgMjAgNDQuNiA0NC42djEzMS45YzAgMjQuNi0yMCA0NC42LTQ0LjYgNDQuNnoiLz48cGF0aCBmaWxsPSIjMzMzMzMzIiBkPSJNNTExLjIgMjc2LjZjLTQ5LjIgMC04OS4yLTQwLTg5LjItODkuMnM0MC04OS4yIDg5LjItODkuMiA4OS4yIDQwIDg5LjIgODkuMi00MCA4OS4yLTg5LjIgODkuMnogbTAtODkuMmgwLjItMC4yeiBtMCAwaDAuMi0wLjJ6IG0wIDBoMC4yLTAuMnogbTAgMGgwLjItMC4yeiBtMCAweiBtMCAwaDAuMi0wLjJ6IG0wIDBoMC4yLTAuMnogbTAtMC4xaDAuMi0wLjJ6TTM5OSA2NzUuNWMtMjguMSAwLTUwLjktMjIuOC01MC45LTUwLjkgMC0yOC4xIDIyLjgtNTAuOSA1MC45LTUwLjlzNTAuOSAyMi44IDUwLjkgNTAuOWMwIDI4LjEtMjIuOCA1MC45LTUwLjkgNTAuOXpNNjIyLjkgNjc1LjVjLTI4LjEgMC01MC45LTIyLjgtNTAuOS01MC45IDAtMjguMSAyMi44LTUwLjkgNTAuOS01MC45IDI4LjEgMCA1MC45IDIyLjggNTAuOSA1MC45IDAgMjguMS0yMi44IDUwLjktNTAuOSA1MC45eiIvPjwvc3ZnPg==;container=0;" vertex="1" parent="FWJiOn7kUcf7o3UVAfIE-109">
          <mxGeometry y="70" width="60" height="60" as="geometry" />
        </mxCell>
        <mxCell id="FWJiOn7kUcf7o3UVAfIE-115" value="" style="group" vertex="1" connectable="0" parent="FWJiOn7kUcf7o3UVAfIE-120">
          <mxGeometry y="140" width="430" height="130" as="geometry" />
        </mxCell>
        <mxCell id="FWJiOn7kUcf7o3UVAfIE-116" value="Can you sing a song for me ?" style="text;html=1;align=center;verticalAlign=middle;whiteSpace=wrap;rounded=1;fontFamily=Comic Sans MS;fontSize=19;strokeColor=default;" vertex="1" parent="FWJiOn7kUcf7o3UVAfIE-115">
          <mxGeometry x="80" y="10" width="280" height="40" as="geometry" />
        </mxCell>
        <mxCell id="FWJiOn7kUcf7o3UVAfIE-117" value="Soft Kitty, warm Kitty, little ball of fur..." style="text;html=1;align=center;verticalAlign=middle;whiteSpace=wrap;rounded=1;fontFamily=Comic Sans MS;fontSize=19;strokeColor=default;" vertex="1" parent="FWJiOn7kUcf7o3UVAfIE-115">
          <mxGeometry x="63" y="80" width="280" height="40" as="geometry" />
        </mxCell>
        <mxCell id="FWJiOn7kUcf7o3UVAfIE-118" value="" style="shape=image;verticalLabelPosition=bottom;labelBackgroundColor=default;verticalAlign=top;aspect=fixed;imageAspect=0;image=data:image/svg+xml,PHN2ZyB4bWxuczp4bGluaz0iaHR0cDovL3d3dy53My5vcmcvMTk5OS94bGluayIgeG1sbnM9Imh0dHA6Ly93d3cudzMub3JnLzIwMDAvc3ZnIiBoZWlnaHQ9IjIwMCIgd2lkdGg9IjIwMCIgdmVyc2lvbj0iMS4xIiB2aWV3Qm94PSIwIDAgMTAyNCAxMDI0IiBjbGFzcz0iaWNvbiI+PHBhdGggZmlsbD0iIzE3MkM1NCIgZD0iTTEwMjIuMTM5NzMzIDg0Ny43MTg0bC01My4xODgyNjYtMjI5LjU1NTJhMTk1LjI3MjUzMyAxOTUuMjcyNTMzIDAgMCAwLTUxLjkwODI2Ny05My40NzQxMzMgMTg5LjA5NTI1MyAxODkuMDk1MjUzIDAgMCAwLTc0LjAyNjY2Ny00Ni4xOTk0NjdsLTY1LjMwNTYtMjguMzM5Mi0zLjgzMTQ2Ni0xLjY5ODEzMy0xMjIuOTM5NzM0LTUzLjAxNzZhMTcwLjM4Njc3MyAxNzAuMzg2NzczIDAgMCAwIDMwLjgzOTQ2Ny05Ni42ODI2Njd2LTQ2LjQxMjhjMjUuNDI5MzMzLTkuMDAyNjY3IDQyLjQ2MTg2Ny0zMy4wNDEwNjcgNDIuNTMwMTMzLTYwLjA0MDUzM3YtNzQuNTIxNmMwLTI5LjM5NzMzMy0yMy43OTk0NjctNTMuMjIyNC01My4xNjI2NjYtNTMuMjM5NDY3LTIuODI0NTMzIDAuMDA4NTMzLTUuNTI5Ni0xLjEwOTMzMy03LjUzNDkzNC0zLjEwNjEzM2ExMC42NjQ5NiAxMC42NjQ5NiAwIDAgMS0zLjEyMzItNy41MzQ5MzRjMC0yOS4zOTczMzMtMjMuNzk5NDY3LTUzLjIyMjQtNTMuMTYyNjY2LTUzLjIzOTQ2NkgzNTIuMDc2OGE1My4xMjg1MzMgNTMuMTI4NTMzIDAgMCAwLTM3LjYwNjQgMTUuNTk4OTMzIDUzLjI1OTA5MyA1My4yNTkwOTMgMCAwIDAtMTUuNTczMzMzIDM3LjY0OTA2N3YxMzguNDAyMTMzYzAuMDc2OCAyNi45OTk0NjcgMTcuMTAwOCA1MS4wNDY0IDQyLjUzMDEzMyA2MC4wNDA1MzN2NDYuNDEyOGMwLjA1OTczMyAzNC45MDk4NjcgMTAuODI4OCA2OC45NjY0IDMwLjg2NTA2NyA5Ny41NDQ1MzRMMjQ5Ljc3MDY2NyA0NDkuMzE0MTMzYy0xLjU2MTYgMC40NjkzMzMtMy4wNjM0NjcgMS4xMTc4NjctNC40OCAxLjkyODUzNGwtNjMuODEyMjY3IDI3LjQ2MDI2NmExOTEuNTI4OTYgMTkxLjUyODk2IDAgMCAwLTc1LjcxNjI2NyA0Ni44NDhBMTk1LjI3NjggMTk1LjI3NjggMCAwIDAgNTQuMjcyIDYxOC4xNzE3MzNsLTUzLjE3OTczMyAyMjkuNTQ2NjY3Yy0wLjIyMTg2NyAxLjU2MTYtMC4yMjE4NjcgMy4xNDAyNjcgMCA0LjY5MzMzMyAwIDcwLjQxNzA2NyA1Ni45MTczMzMgMTI3LjUzMDY2NyAxMjcuMjA2NCAxMjcuNzYxMDY3di0wLjE2MjEzM2g3NzIuNzUzMDY2YzY3LjQ0NzQ2Ny0zLjQxMzMzMyAxMjEuMDc5NDY3LTU5LjIzODQgMTIxLjA3OTQ2Ny0xMjcuNTk4OTM0IDAuMjMwNC0xLjU2MTYgMC4yMzA0LTMuMTQwMjY3IDAuMDA4NTMzLTQuNjkzMzMzek00MjEuNDE4NjY3IDI1Ni4xNzkyYzQ1Ljk1MiAwLjE2MjEzMyA5MC45NjUzMzMtMTMuMDk4NjY3IDEyOS41MzYtMzguMTAxMzMzYTE2NC41NzEzMDcgMTY0LjU3MTMwNyAwIDAgMCA4OC4zMiAzOC4xMDEzMzN2NDIuNTgxMzMzYzAgNzAuNTYyMTMzLTU3LjEzOTIgMTI3Ljc2OTYtMTI3LjYyNDUzNCAxMjcuNzY5Ni03MC40OTM4NjcgMC0xMjcuNjMzMDY3LTU3LjIwNzQ2Ny0xMjcuNjMzMDY2LTEyNy43Njk2di00Mi41ODEzMzNoMzcuNDAxNnogbTE1NS4yODk2IDIwMC4xNjY0bC0zNy4yNDggOTcuOTM3MDY3aC01NS43MTQxMzRsLTM1Ljk2OC05Ny45MzcwNjdhMTY5Ljk5MjUzMyAxNjkuOTkyNTMzIDAgMCAwIDEyOC45MzAxMzQgMHogbTE2OC44OTE3MzMgNDM4LjY0NzQ2N0gyNzcuNjE0OTMzVjU5Ni44ODEwNjdoNDY3Ljk4NTA2N3YyOTguMTEyeiIvPjxwYXRoIGZpbGw9IiMxNzJDNTQiIGQ9Ik00NDEuNjA4NTMzIDY4OC4yNDc0NjdhMjEuMjU5OTQ3IDIxLjI1OTk0NyAwIDAgMC0xNS4wNzg0LTYuMjgwNTM0Yy01LjY2NjEzMyAwLTExLjA5MzMzMyAyLjI2MTMzMy0xNS4wODY5MzMgNi4yODA1MzRsLTQyLjU1NTczMyA0Mi41NTU3MzNhMjEuMjg4OTYgMjEuMjg4OTYgMCAwIDAtNi4yOTc2IDE1LjEyMTA2N2MwIDUuNjc0NjY3IDIuMjYxMzMzIDExLjExODkzMyA2LjI5NzYgMTUuMTIxMDY2bDQyLjUzMDEzMyA0Mi41OTg0YTIxLjI4NTU0NyAyMS4yODU1NDcgMCAwIDAgMTUuMTA0IDYuMjk3NmM1LjY3NDY2NyAwIDExLjExMDQtMi4yNjk4NjcgMTUuMTA0LTYuMjk3NmEyMS4zMTYyNjcgMjEuMzE2MjY3IDAgMCAwIDYuMjg5MDY3LTE1LjEyMTA2NmMwLTUuNjc0NjY3LTIuMjYxMzMzLTExLjExODkzMy02LjI4OTA2Ny0xNS4xMjEwNjdsLTI3LjY2NTA2Ny0yNy40NzczMzMgMjcuNjY1MDY3LTI3LjQ2MDI2N2EyMS4zMTYyNjcgMjEuMzE2MjY3IDAgMCAwIDYuMjg5MDY3LTE1LjEyMTA2N2MwLTUuNjc0NjY3LTIuMjYxMzMzLTExLjExODkzMy02LjI4OTA2Ny0xNS4xMjEwNjZsLTAuMDE3MDY3IDAuMDI1NnogbTEzOS45OTc4NjcgMGEyMS4zMTIgMjEuMzEyIDAgMCAwLTYuMjcyIDE1LjA5NTQ2NmMwIDUuNjY2MTMzIDIuMjYxMzMzIDExLjEwMTg2NyA2LjI3MiAxNS4wOTU0NjdsMjcuNjMwOTMzIDI3LjQ4NTg2Ny0yNy42MzA5MzMgMjcuNDc3MzMzYTIxLjMyNDggMjEuMzI0OCAwIDAgMC02LjI5NzYgMTUuMTIxMDY3YzAgNS42NzQ2NjcgMi4yNjk4NjcgMTEuMTE4OTMzIDYuMjk3NiAxNS4xMjEwNjZhMjEuMjU3Mzg3IDIxLjI1NzM4NyAwIDAgMCAxNS4wOTU0NjcgNi4yODkwNjdjNS42NjYxMzMgMCAxMS4xMDE4NjctMi4yNjEzMzMgMTUuMDk1NDY2LTYuMjg5MDY3bDQyLjUzMDEzNC00Mi41OTg0YTIxLjMyNDggMjEuMzI0OCAwIDAgMCA2LjI5NzYtMTUuMTIxMDY2YzAtNS42NzQ2NjctMi4yNjk4NjctMTEuMTE4OTMzLTYuMjk3Ni0xNS4xMjEwNjdsLTQyLjUxMzA2Ny00Mi41NTU3MzNhMjEuMjcxMDQgMjEuMjcxMDQgMCAwIDAtMTUuMTA0LTYuMjk3NmMtNS42NzQ2NjcgMC0xMS4xMTA0IDIuMjYxMzMzLTE1LjEwNCA2LjI5NzZ6IG0tNDEuOTA3Mi0yNi40MzYyNjdhMjEuMjY4NDggMjEuMjY4NDggMCAwIDAtMTYuMzA3MiAxLjA4MzczMyAyMS4yOTA2NjcgMjEuMjkwNjY3IDAgMCAwLTEwLjczNDkzMyAxMi4zMzkybC00Mi41MzAxMzQgMTI3Ljc2MTA2N2EyMS4zMTg4MjcgMjEuMzE4ODI3IDAgMCAwIDAuNjA1ODY3IDE2Ljk3MjggMjEuMjg4MTA3IDIxLjI4ODEwNyAwIDAgMCAxMi44MDg1MzMgMTEuMTM2YzIuMjUyOCAwLjI5ODY2NyA0LjU0ODI2NyAwLjI5ODY2NyA2Ljc5MjUzNCAwIDkuMTMwNjY3IDAuMDA4NTMzIDE3LjI2MjkzMy01LjgxMTIgMjAuMTg5ODY2LTE0LjQ3MjUzM2w0Mi41NTU3MzQtMTI3Ljc2MTA2N2EyMS4zMjczNiAyMS4zMjczNiAwIDAgMC0xLjA3NTItMTYuMzE1NzMzIDIxLjI2OTMzMyAyMS4yNjkzMzMgMCAwIDAtMTIuMzA1MDY3LTEwLjc0MzQ2N3ogbTAgMCIvPjwvc3ZnPg==;container=0;" vertex="1" parent="FWJiOn7kUcf7o3UVAfIE-115">
          <mxGeometry x="370" width="60" height="60" as="geometry" />
        </mxCell>
        <mxCell id="FWJiOn7kUcf7o3UVAfIE-119" value="" style="shape=image;verticalLabelPosition=bottom;labelBackgroundColor=default;verticalAlign=top;aspect=fixed;imageAspect=0;image=data:image/svg+xml,PHN2ZyB4bWxuczp4bGluaz0iaHR0cDovL3d3dy53My5vcmcvMTk5OS94bGluayIgeG1sbnM9Imh0dHA6Ly93d3cudzMub3JnLzIwMDAvc3ZnIiBoZWlnaHQ9IjIwMCIgd2lkdGg9IjIwMCIgdmVyc2lvbj0iMS4xIiB2aWV3Qm94PSIwIDAgMTAyNCAxMDI0IiBjbGFzcz0iaWNvbiI+PHBhdGggZmlsbD0iIzMzMzMzMyIgZD0iTTY4My43IDkyMi43aC0zNDVjLTczLjUgMC0xMzMuMy01OS44LTEzMy4zLTEzMy4zVjQ1OS44YzAtNzMuNSA1OS44LTEzMy4zIDEzMy4zLTEzMy4zaDM0NWM3My41IDAgMTMzLjMgNTkuOCAxMzMuMyAxMzMuM3YzMjkuNmMwIDczLjUtNTkuOCAxMzMuMy0xMzMuMyAxMzMuM3ogbS0zNDUtNTA2LjljLTI0LjMgMC00NC4xIDE5LjgtNDQuMSA0NC4xdjMyOS42YzAgMjQuMyAxOS44IDQ0LjEgNDQuMSA0NC4xaDM0NWMyNC4zIDAgNDQuMS0xOS44IDQ0LjEtNDQuMVY0NTkuOGMwLTI0LjMtMTkuOC00NC4xLTQ0LjEtNDQuMWgtMzQ1ek05MTQuMyA3NTkuNmMtMjQuNiAwLTQ0LjYtMjAtNDQuNi00NC42VjUzNC4zYzAtMjQuNiAyMC00NC42IDQ0LjYtNDQuNnM0NC42IDIwIDQ0LjYgNDQuNlY3MTVjMCAyNC43LTIwIDQ0LjYtNDQuNiA0NC42ek0xMTEuNyA3NTkuNmMtMjQuNiAwLTQ0LjYtMjAtNDQuNi00NC42VjUzNC4zYzAtMjQuNiAyMC00NC42IDQ0LjYtNDQuNnM0NC42IDIwIDQ0LjYgNDQuNlY3MTVjMCAyNC43LTE5LjkgNDQuNi00NC42IDQ0LjZ6Ii8+PHBhdGggZmlsbD0iIzMzMzMzMyIgZD0iTTUxMS4yIDQxNS44Yy0yNC42IDAtNDQuNi0yMC00NC42LTQ0LjZWMjM5LjNjMC0yNC42IDIwLTQ0LjYgNDQuNi00NC42czQ0LjYgMjAgNDQuNiA0NC42djEzMS45YzAgMjQuNi0yMCA0NC42LTQ0LjYgNDQuNnoiLz48cGF0aCBmaWxsPSIjMzMzMzMzIiBkPSJNNTExLjIgMjc2LjZjLTQ5LjIgMC04OS4yLTQwLTg5LjItODkuMnM0MC04OS4yIDg5LjItODkuMiA4OS4yIDQwIDg5LjIgODkuMi00MCA4OS4yLTg5LjIgODkuMnogbTAtODkuMmgwLjItMC4yeiBtMCAwaDAuMi0wLjJ6IG0wIDBoMC4yLTAuMnogbTAgMGgwLjItMC4yeiBtMCAweiBtMCAwaDAuMi0wLjJ6IG0wIDBoMC4yLTAuMnogbTAtMC4xaDAuMi0wLjJ6TTM5OSA2NzUuNWMtMjguMSAwLTUwLjktMjIuOC01MC45LTUwLjkgMC0yOC4xIDIyLjgtNTAuOSA1MC45LTUwLjlzNTAuOSAyMi44IDUwLjkgNTAuOWMwIDI4LjEtMjIuOCA1MC45LTUwLjkgNTAuOXpNNjIyLjkgNjc1LjVjLTI4LjEgMC01MC45LTIyLjgtNTAuOS01MC45IDAtMjguMSAyMi44LTUwLjkgNTAuOS01MC45IDI4LjEgMCA1MC45IDIyLjggNTAuOSA1MC45IDAgMjguMS0yMi44IDUwLjktNTAuOSA1MC45eiIvPjwvc3ZnPg==;container=0;" vertex="1" parent="FWJiOn7kUcf7o3UVAfIE-115">
          <mxGeometry y="70" width="60" height="60" as="geometry" />
        </mxCell>
      </root>
    </mxGraphModel>
  </diagram>
</mxfile>
